<svg width="1024" height="1024" viewBox="0 0 1024 1024" fill="none" xmlns="http://www.w3.org/2000/svg">
<path d="M1024 512C1024 794.77 794.77 1024 512 1024C229.23 1024 0 794.77 0 512C0 229.23 229.23 0 512 0C794.77 0 1024 229.23 1024 512Z" fill="black"/>
<path d="M313.244 321.976L313.326 620.33L216.031 752.869L216 197.005L344.874 197.036L476.947 383.541L609.243 197L730.645 197.052L477.382 547.242" fill="white"/>
<path d="M710.47 702.767L710.39 404.414L807.686 271.875L807.717 827.739L678.842 827.708L546.77 641.202L414.474 827.744L293.072 827.692L546.332 477.502" fill="url(#paint0_radial_496_7301)"/>
<path fill-rule="evenodd" clip-rule="evenodd" d="M807.706 271.812L807.737 827.76L678.832 827.728L678.826 827.72L546.77 641.238L414.491 827.756L414.485 827.765L293.031 827.713L546.315 477.489L546.349 477.514L293.112 827.671L414.463 827.723L546.77 641.167L678.853 827.687L807.696 827.718L807.665 271.939L710.411 404.421L710.491 702.768H710.45L710.369 404.399L710.374 404.402L807.706 271.812Z" fill="black"/>
<defs>
<radialGradient id="paint0_radial_496_7301" cx="0" cy="0" r="1" gradientUnits="userSpaceOnUse" gradientTransform="translate(539.619 489.085) rotate(51.3402) scale(340.297 817.761)">
<stop stop-color="#717075"/>
<stop offset="0.847951" stop-color="white"/>
</radialGradient>
</defs>
</svg>